<svg class="injected-svg" id="svg-26475e56-9668-46ad-ab4d-f224f4eb694e" height="100%" width="100%" viewBox="0 0 540 508" xmlns="http://www.w3.org/2000/svg"><path xmlns="http://www.w3.org/2000/svg" id="SvgjsPath7135" d="M13.68-10.08L13.68-20.09L38.81-20.09L38.81-10.08ZM13.68-30.17L13.68-40.32L38.81-40.32L38.81-30.17ZM43.85 0L48.82-4.97L48.82-20.09L43.85-25.13L48.82-30.17L48.82-45.29L43.85-50.40L3.60-50.40L3.60 0ZM56.02-50.40L56.02 0L98.78 0L98.78-10.08L66.10-10.08L66.10-50.40ZM113.90-10.08L113.90-40.32L139.03-40.32L139.03-10.08ZM144.07 0L149.04-4.97L149.04-45.29L144.07-50.40L108.79-50.40L103.82-45.29L103.82-4.97L108.79 0ZM196.49 0L201.46-4.97L201.46-28.87L178.78-28.87L178.78-18.79L191.45-18.79L191.45-10.08L166.32-10.08L166.32-40.32L191.45-40.32L191.45-35.28L201.46-35.28L201.46-45.29L196.49-50.40L161.21-50.40L156.24-45.29L156.24-4.97L161.21 0Z" fill="#5984d6" fontsize="72" transform="matrix(1,0,0,1,166.97,274.7)"></path></svg>